# xmcd CD database file
# Copyright (C) 1996 Ti Kan
#
# Track frame offsets:
#	150
#	25506
#	41142
#	63755
#	82741
#	94220
#	116114
#	138870
#	181543
#	195698
#	222331
#	244999
# Disc length: 3603 seconds
#
# Revision: 1
# Processed by: cddbd v1.5.1PL0 Copyright (c) Steve Scherf et al.
# Submitted via: CDCOPY 4.900
#
DISCID=9a0e110c
DTITLE=ASPM - Petr Kalandra and ASPM
DYEAR=1900
DGENRE=
TTITLE0=Verim v nas (I Believe In You)
TTITLE1=Konakova sklenka
TTITLE2=Aceton blues
TTITLE3=Jak sem vyrost (Misty Mountains)
TTITLE4=Svet bez lahvi
TTITLE5=San Francisco Bay Blues
TTITLE6=Asi v tom bude nejakej hacek
TTITLE7=Solnej sloup (Like A Rolling Stone)
TTITLE8=Spadla mi pena
TTITLE9=St. James Infirmary Blues
TTITLE10=Mestacky blues
TTITLE11=Nekdy se jdu opit
EXTD=
EXTT0=
EXTT1=
EXTT2=
EXTT3=
EXTT4=
EXTT5=
EXTT6=
EXTT7=
EXTT8=
EXTT9=
EXTT10=
EXTT11=
PLAYORDER=
